# Blender v2.72 (sub 0) OBJ File: ''
# www.blender.org
o Cube
v 3.268736 -3.268736 -3.268735
v 3.268736 -3.268736 3.268736
v -3.268736 -3.268736 3.268735
v -3.268734 -3.268736 -3.268737
v 3.268737 3.268736 -3.268734
v 3.268734 3.268736 3.268738
v -3.268737 3.268736 3.268734
v -3.268735 3.268736 -3.268736
vt 0.000000 0.666667
vt 0.333333 0.666667
vt 0.333333 1.000000
vt 0.000000 0.333333
vt 0.666667 0.333333
vt 0.333333 0.333333
vt 0.333333 0.000000
vt 0.000000 0.000000
vt 0.666667 0.000000
vt 1.000000 0.000000
vt 0.666667 0.666667
vt 0.000000 1.000000
vt 1.000000 0.333333
vn 0.577300 -0.577300 -0.577300
vn 0.577300 -0.577300 0.577300
vn -0.577300 -0.577300 0.577300
vn -0.577300 0.577300 -0.577300
vn -0.577300 0.577300 0.577300
vn 0.577300 0.577300 0.577300
vn 0.577300 0.577300 -0.577300
vn -0.577300 -0.577300 -0.577300
s 1
f 1/1/1 2/2/2 3/3/3
f 8/2/4 7/1/5 6/4/6
f 1/5/1 5/6/7 6/7/6
f 2/4/2 6/8/6 7/7/5
f 7/5/5 8/9/4 4/10/8
f 1/5/1 4/11/8 8/2/4
f 4/12/8 1/1/1 3/3/3
f 5/6/7 8/2/4 6/4/6
f 2/9/2 1/5/1 6/7/6
f 3/6/3 2/4/2 7/7/5
f 3/13/3 7/5/5 4/10/8
f 5/6/7 1/5/1 8/2/4
