# Blender v2.72 (sub 0) OBJ File: ''
# www.blender.org
o Cube
v 2.371629 -2.371629 -2.371629
v 2.371629 -2.371629 2.371629
v -2.371629 -2.371629 2.371629
v -2.371628 -2.371629 -2.371630
v 2.371630 2.371629 -2.371628
v 2.371627 2.371629 2.371630
v -2.371630 2.371629 2.371628
v -2.371629 2.371629 -2.371629
vt 0.333333 0.666667
vt 0.333333 1.000000
vt 0.000000 1.000000
vt 0.000000 0.666667
vt 0.000000 0.333333
vt 0.333333 0.333333
vt 0.333333 0.000000
vt 0.666667 0.000000
vt 0.000000 0.000000
vt 0.666667 0.333333
vt 1.000000 0.000000
vt 0.666667 0.666667
vt 1.000000 0.333333
vn 0.000000 -1.000000 -0.000000
vn 0.000000 1.000000 -0.000000
vn 1.000000 0.000000 0.000000
vn -0.000000 -0.000000 1.000000
vn -1.000000 -0.000000 -0.000000
vn 0.000000 0.000000 -1.000000
s off
f 2/1/1 3/2/1 4/3/1
f 8/1/2 7/4/2 6/5/2
f 5/6/3 6/7/3 2/8/3
f 2/5/4 6/9/4 7/7/4
f 7/10/5 8/8/5 4/11/5
f 1/10/6 4/12/6 8/1/6
f 1/4/1 2/1/1 4/3/1
f 5/6/2 8/1/2 6/5/2
f 1/10/3 5/6/3 2/8/3
f 3/6/4 2/5/4 7/7/4
f 3/13/5 7/10/5 4/11/5
f 5/6/6 1/10/6 8/1/6
