# Blender v2.72 (sub 0) OBJ File: ''
# www.blender.org
o Cube.001
v -1.000000 0.452976 1.000000
v -1.000000 0.452976 -1.000000
v 1.000000 0.452976 -1.000000
v 1.000000 0.452976 1.000000
v -1.000000 2.452976 1.000000
v -1.000000 2.452976 -1.000000
v 1.000000 2.452976 -1.000000
v 1.000000 2.452976 1.000000
vt 1.000000 0.000000
vt 1.000000 1.000000
vt 0.000000 1.000000
vt 0.000000 0.000000
vn -0.577300 0.577300 -0.577300
vn -0.577300 -0.577300 -0.577300
vn -0.577300 -0.577300 0.577300
vn 0.577300 0.577300 -0.577300
vn 0.577300 -0.577300 -0.577300
vn 0.577300 0.577300 0.577300
vn 0.577300 -0.577300 0.577300
vn -0.577300 0.577300 0.577300
s 1
f 6/1/1 2/2/2 1/3/3
f 7/1/4 3/2/5 2/3/2
f 8/1/6 4/2/7 3/3/5
f 5/1/8 1/2/3 4/3/7
f 2/1/2 3/2/5 4/3/7
f 7/1/4 6/2/1 5/3/8
f 5/4/8 6/1/1 1/3/3
f 6/4/1 7/1/4 2/3/2
f 7/4/4 8/1/6 3/3/5
f 8/4/6 5/1/8 4/3/7
f 1/4/3 2/1/2 4/3/7
f 8/4/6 7/1/4 5/3/8
o Cube
v 7.602631 0.020089 -7.602631
v 7.602631 0.020089 7.602631
v -7.602632 0.020089 7.602630
v -7.602628 0.020089 -7.602634
v 7.602635 -0.020089 -7.602627
v 7.602626 -0.020089 7.602636
v -7.602634 -0.020089 7.602628
v -7.602631 -0.020089 -7.602631
vt 0.333333 0.666667
vt 0.333333 1.000000
vt 0.000000 1.000000
vt 0.000000 0.666667
vt 0.000000 0.333333
vt 0.666667 0.333333
vt 0.333333 0.333333
vt 0.333333 0.000000
vt 0.000000 0.000000
vt 0.666667 0.000000
vt 1.000000 0.000000
vt 0.666667 0.666667
vt 1.000000 0.333333
vn -0.577400 -0.577300 -0.577300
vn 0.577300 -0.577300 -0.577300
vn 0.577300 -0.577300 0.577400
vn 0.577300 0.577300 0.577300
vn 0.577300 0.577300 -0.577300
vn -0.577300 0.577300 -0.577400
vn -0.577300 -0.577300 0.577400
vn -0.577400 0.577300 0.577300
s 1
f 10/5/9 11/6/10 12/7/11
f 16/5/12 15/8/13 14/9/14
f 9/10/15 13/11/16 14/12/14
f 10/9/9 14/13/14 15/12/13
f 15/10/13 16/14/12 12/15/11
f 13/11/16 9/10/15 12/16/11
f 9/8/15 10/5/9 12/7/11
f 13/11/16 16/5/12 14/9/14
f 10/14/9 9/10/15 14/12/14
f 11/11/10 10/9/9 15/12/13
f 11/17/10 15/10/13 12/15/11
f 16/5/12 13/11/16 12/16/11
