# Blender v2.72 (sub 0) OBJ File: ''
# www.blender.org
o Cube.001
v -0.355954 0.673644 0.355954
v -0.355954 0.673644 -0.355954
v 0.355954 0.673644 -0.355954
v 0.355954 0.673644 0.355954
v -0.355954 1.385553 0.355954
v -0.355954 1.385553 -0.355954
v 0.355954 1.385553 -0.355954
v 0.355954 1.385553 0.355954
vt 0.333333 0.000000
vt 0.666667 0.000000
vt 0.666667 0.333333
vt 0.000000 0.333333
vt 0.333333 0.333333
vt 0.333333 0.666667
vt 0.000000 0.000000
vt 0.666667 0.666667
vt 1.000000 0.333333
vt 0.333333 1.000000
vt 0.000000 1.000000
vt 0.000000 0.666667
vt 1.000000 0.000000
vn -1.000000 0.000000 0.000000
vn 0.000000 0.000000 -1.000000
vn 1.000000 0.000000 0.000000
vn 0.000000 0.000000 1.000000
vn 0.000000 -1.000000 0.000000
vn 0.000000 1.000000 0.000000
s off
f 6/1/1 2/2/1 1/3/1
f 7/4/2 3/5/2 2/6/2
f 8/7/3 4/1/3 3/5/3
f 5/3/4 1/8/4 4/6/4
f 2/9/5 3/3/5 4/2/5
f 7/6/6 6/10/6 5/11/6
f 5/5/1 6/1/1 1/3/1
f 6/12/2 7/4/2 2/6/2
f 7/4/3 8/7/3 3/5/3
f 8/5/4 5/3/4 4/6/4
f 1/13/5 2/9/5 4/2/5
f 8/12/6 7/6/6 5/11/6
o Cube
v -2.401798 0.038376 -2.401798
v -2.401799 0.038376 2.401797
v 2.401797 0.038376 2.401800
v 2.401799 0.038376 -2.401797
v -2.401797 -0.038376 -2.401799
v -2.401798 -0.038376 2.401798
v 2.401798 -0.038376 2.401798
v 2.401798 -0.038376 -2.401798
vt 0.333333 0.333333
vt 0.333333 0.666667
vt 0.000000 0.666667
vt 0.666667 0.333333
vt 0.666667 0.000000
vt 1.000000 0.000000
vt 0.000000 0.333333
vt 0.000000 0.000000
vt 0.333333 0.000000
vt 0.666667 0.666667
vt 0.333333 1.000000
vt 0.000000 1.000000
vt 1.000000 0.333333
vn 0.000000 0.000000 -1.000000
vn -1.000000 -0.000000 -0.000000
vn -0.000000 -0.000000 1.000000
vn 1.000000 -0.000000 0.000000
vn 0.000000 1.000000 0.000000
vn 0.000000 -1.000000 0.000000
s off
f 16/14/7 13/15/7 9/16/7
f 10/17/8 9/18/8 13/19/8
f 15/20/9 11/21/9 10/22/9
f 16/17/10 12/14/10 11/22/10
f 9/23/11 10/15/11 11/14/11
f 15/15/12 14/24/12 13/25/12
f 12/20/7 16/14/7 9/16/7
f 14/26/8 10/17/8 13/19/8
f 14/14/9 15/20/9 10/22/9
f 15/18/10 16/17/10 11/22/10
f 12/17/11 9/23/11 11/14/11
f 16/16/12 15/15/12 13/25/12
